<svg width="200" height="54" viewBox="0 0 169 54" fill="none" xmlns="http://www.w3.org/2000/svg">
<path d="M58.9918 43.7923H54.6202V38.5273L58.9918 38.5351L59.8644 39.4126V42.9148L58.9918 43.7923ZM58.6881 39.9924L58.4085 39.7025H55.7908V42.6249H58.4085L58.6881 42.335V39.9924Z" fill="white"/>
<path d="M62.3441 38.5352V39.9837V40.5781V43.7923H63.5042V40.5781V39.9837V38.5352H62.3441Z" fill="white"/>
<path d="M70.3423 43.7923H66.8597L65.9871 42.9149V39.4049L66.8597 38.5352H70.3423L71.2148 39.4049V40.2824H70.054V39.9925L69.7657 39.7026H67.4363L67.148 39.9925V42.335L67.4363 42.6249H69.7657L70.054 42.335V42.0374H68.8931V40.87H71.2148V42.9149L70.3423 43.7923Z" fill="white"/>
<path d="M73.711 38.5352V39.9837V40.5781V43.7923H74.8711V40.5781V39.9837V38.5352H73.711Z" fill="white"/>
<path d="M80.3293 39.7026V43.7923H79.1607V39.7026H77.1273V38.5352H82.3628V39.7026H80.3293Z" fill="white"/>
<path d="M88.9326 43.7923H85.4423L84.5698 42.9148V41.4575L84.9896 41.0266L85.4423 40.58H88.6444V39.9924L88.3483 39.7025H86.0266L85.7384 39.9924V40.2823H84.5698V39.4048L85.4423 38.5273H88.9326L89.8052 39.4214V42.9148L88.9326 43.7923ZM88.6444 41.7474H86.0015L85.7297 42.0373V42.335L86.0257 42.6249H88.3474L88.6434 42.335V41.7474H88.6444Z" fill="white"/>
<path d="M92.3405 43.7923V38.5273H93.5014V42.6249H97.576V43.7923H92.3405Z" fill="white"/>
<path d="M105.886 38.5352H109.377L110.242 39.4127V40.2824H109.081V39.9925L108.792 39.7026H106.463L106.175 39.9925V40.2824L106.463 40.5801H109.369L110.242 41.4663V42.9149L109.377 43.7923H105.886L105.014 42.9149V42.0374H106.175V42.335L106.471 42.6327H108.8L109.08 42.335V42.0451L108.792 41.7475H105.886L105.013 40.8777V39.4127L105.886 38.5352Z" fill="white"/>
<path d="M117.115 43.7923H113.625L112.752 42.9149V39.4127L113.625 38.5352H117.115L117.988 39.4127V42.9149L117.115 43.7923ZM116.812 39.9925L116.532 39.7026H114.21L113.922 39.9925V42.335L114.21 42.6249H116.532L116.812 42.335V39.9925Z" fill="white"/>
<path d="M120.461 43.7923V38.5273H121.622V42.6249H125.696V43.7923H120.461Z" fill="white"/>
<path d="M132.54 43.7923H129.057L128.185 42.9226V38.5351H129.346V42.335L129.634 42.6249H131.963L132.252 42.335V38.5351L133.412 38.5273V39.0488V42.9236L132.54 43.7923Z" fill="white"/>
<path d="M139.11 39.7026V43.7923H137.942V39.7026H135.908V38.5352H141.144V39.7026H139.11Z" fill="white"/>
<path d="M143.632 39.7026V38.5352H144.792V39.7026H143.632ZM143.632 43.7923V39.9837H144.792V43.7923H143.632Z" fill="white"/>
<path d="M151.646 43.7923H148.156L147.283 42.9149V39.4127L148.156 38.5352H151.646L152.519 39.4127V42.9149L151.646 43.7923ZM151.341 39.9925L151.062 39.7026H148.74L148.452 39.9925V42.335L148.74 42.6249H151.062L151.341 42.335V39.9925Z" fill="white"/>
<path d="M159.066 43.7923V39.9924L158.778 39.7025H156.456L156.168 39.9924V43.7923H154.999V39.4048L155.872 38.5273H159.362L160.235 39.4048V43.7923H159.066Z" fill="white"/>
<path d="M163.597 38.5352H167.087L167.952 39.4127V40.2824H166.791V39.9925L166.503 39.7026H164.173L163.885 39.9925V40.2824L164.173 40.5801H167.079L167.952 41.4663V42.9149L167.087 43.7923H163.597L162.724 42.9149V42.0374H163.885V42.335L164.181 42.6327H166.51L166.79 42.335V42.0451L166.502 41.7475H163.596L162.723 40.8777V39.4127L163.597 38.5352Z" fill="white"/>
<path d="M70.499 34.3518L73.6962 31.1366V27.9214H69.4426V29.0129L68.3872 30.0743H59.851L58.7946 29.0129V20.4286L59.851 19.3673H68.3872L69.4426 20.4286V21.49H73.6962V18.2748L70.499 15.0596H57.7392L54.5421 18.2748V31.1366L57.7392 34.3518H70.499Z" fill="url(#paint0_linear_1_3721)"/>
<path d="M97.3433 34.3518V26.8591L95.7452 25.2519L97.3443 23.6438V18.2748L94.1471 15.0596H78.1592V34.3518H82.4118V27.9214H92.0044L93.0898 29.0129L93.0598 34.3518H97.3433ZM92.0044 23.6438H82.4118V19.3673H92.0044L93.0898 20.4286V22.5825L92.0044 23.6438Z" fill="white"/>
<path d="M120.93 34.1397V30.0743H107.084L106.029 29.0129V26.8591H109.347H120.93V22.5825H108.563H106.029V20.4286L107.084 19.3673H120.93V15.0596H104.974L101.776 18.2748V31.1064L102.319 31.6522L104.974 34.3518H106.844H120.93V34.1397Z" fill="white"/>
<path d="M144.586 15.0742H125.401V19.3518H132.852V34.3363H137.135V19.3518H144.586V15.0742Z" fill="white"/>
<path d="M154.079 34.3518H168.165V34.1397V30.0743H154.32L153.264 29.0129V26.8591H156.582H168.165V22.5825H155.798H153.264V20.4286L154.32 19.3673H168.165V15.0596H152.208L149.011 18.2748V31.1064L149.554 31.6522L152.208 34.3518H154.079Z" fill="white"/>
<path d="M24.2448 48.7289C25.4042 48.7289 26.3441 47.7838 26.3441 46.6179C26.3441 45.452 25.4042 44.5068 24.2448 44.5068C23.0855 44.5068 22.1456 45.452 22.1456 46.6179C22.1456 47.7838 23.0855 48.7289 24.2448 48.7289Z" fill="url(#paint1_linear_1_3721)"/>
<path d="M7.1767 13.035L20.7452 5.15699C22.9082 3.90106 25.5724 3.90106 27.7345 5.15699L41.3029 13.035C41.3145 13.0418 41.3262 13.0496 41.3378 13.0564L48.2845 17.0898C48.3474 17.1267 48.4267 17.081 48.4267 17.0071C48.4267 14.501 47.0975 12.1847 44.9384 10.9317L27.7277 0.939756C25.5695 -0.313252 22.9102 -0.313252 20.7519 0.939756L3.54129 10.9317C1.38306 12.1847 0.0529175 14.501 0.0529175 17.0071V36.992C0.0529175 39.498 1.3821 41.8143 3.54129 43.0673L6.0439 44.5207L13.1329 48.6368L20.7519 53.0602C21.8315 53.6867 23.0359 54 24.2403 54C25.4447 54 26.6491 53.6867 27.7287 53.0602L35.3478 48.6368L42.4367 44.5207L44.7981 43.15L44.9393 43.0683C46.935 41.9096 48.4025 39.5476 48.4025 37.5562C48.4025 35.5658 46.935 33.2028 44.9393 32.0441L44.7981 31.9624L42.4367 30.5917L35.3478 26.4756L26.3444 21.2467V25.4629L38.8081 32.6979L41.3039 34.1464C41.7121 34.3838 42.0914 34.6591 42.4367 34.9665C43.2406 35.6806 44.2031 36.5201 44.2031 37.5552C44.2031 38.5903 43.2396 39.4299 42.4367 40.1439C42.0904 40.4514 41.7121 40.7267 41.3039 40.964L38.8081 42.4126L27.7345 48.843C26.6529 49.4705 25.4466 49.7847 24.2393 49.7847C23.032 49.7847 21.8257 49.4705 20.7442 48.843L9.67157 42.4145L7.17573 40.966C6.7675 40.7286 6.38828 40.4533 6.04293 40.1459C4.558 38.8267 3.68156 36.9151 3.68156 34.879V19.122C3.68156 16.6111 5.01364 14.2909 7.1767 13.035Z" fill="white"/>
<path d="M13.6951 32.1642C13.6951 30.8159 13.9224 30.2302 15.0823 29.556L22.1326 25.4624V21.2461L11.622 27.3496C10.3063 28.1133 9.49664 29.7049 9.49664 31.2322V32.1632V33.0942C9.49664 34.6216 10.3073 36.0312 11.622 36.7949L22.1326 42.8984V38.5888L15.0823 34.4951C13.9224 33.8238 13.6951 33.5125 13.6951 32.1642Z" fill="white"/>
<path d="M38.9727 20.9112C38.9727 19.3838 38.162 17.9723 36.8474 17.2086L26.36 11.1196C25.0444 10.356 23.424 10.356 22.1093 11.1196L11.622 17.2086C10.3063 17.9723 9.49664 19.3838 9.49664 20.9112V22.2196C9.49664 22.458 9.753 22.6068 9.95808 22.4882L15.0146 19.5521C15.0378 19.5385 15.0591 19.523 15.0823 19.5093L22.3599 15.2834C23.5198 14.6102 24.9496 14.6102 26.1095 15.2834L33.387 19.5093C34.5469 20.1825 35.2618 21.4278 35.2618 22.7742V25.0418L38.9727 27.1976V20.9112Z" fill="url(#paint2_linear_1_3721)"/>
<path d="M35.1885 31.9863C35.0995 32.4202 34.935 32.8327 34.7067 33.2053C34.3856 33.7287 33.9396 34.1742 33.3921 34.4923L30.9959 35.8835L26.3438 38.5851V42.8947L29.1888 41.2428L34.7067 38.0393L36.8524 36.7931C37.8672 36.2045 38.5782 35.2288 38.851 34.1129L35.1885 31.9863Z" fill="url(#paint3_linear_1_3721)"/>
<defs>
<linearGradient id="paint0_linear_1_3721" x1="54.5421" y1="24.7056" x2="73.696" y2="24.7056" gradientUnits="userSpaceOnUse">
<stop stop-color="#F29B00"/>
<stop offset="0.3393" stop-color="#F19800"/>
<stop offset="0.5705" stop-color="#EE8F00"/>
<stop offset="0.7694" stop-color="#E88000"/>
<stop offset="0.9492" stop-color="#E16B00"/>
<stop offset="1" stop-color="#DE6300"/>
</linearGradient>
<linearGradient id="paint1_linear_1_3721" x1="2.62928" y1="15.1126" x2="50.9426" y2="84.745" gradientUnits="userSpaceOnUse">
<stop stop-color="#F29B00"/>
<stop offset="1" stop-color="#DE6300"/>
</linearGradient>
<linearGradient id="paint2_linear_1_3721" x1="14.551" y1="6.8343" x2="62.8642" y2="76.4667" gradientUnits="userSpaceOnUse">
<stop stop-color="#F29B00"/>
<stop offset="1" stop-color="#DE6300"/>
</linearGradient>
<linearGradient id="paint3_linear_1_3721" x1="12.0587" y1="8.56739" x2="60.372" y2="78.1998" gradientUnits="userSpaceOnUse">
<stop stop-color="#F29B00"/>
<stop offset="1" stop-color="#DE6300"/>
</linearGradient>
</defs>
</svg>
